<svg id="Layer_1" data-name="Layer 1" xmlns="http://www.w3.org/2000/svg" viewBox="0 0 497.96 52.72"><defs><style>.cls-1{fill:none;stroke:#e2097e;stroke-miterlimit:10;stroke-width:1.8px;}</style></defs><title>NewSelfWales-Logo-01</title><path class="cls-1" d="M43.24,22.77H38.33a.53.53,0,0,0-.5.36l-1.07,7c-.07.28.14.43.43.43h3.49a1.09,1.09,0,0,1,1.21,1.21v6.12a1.09,1.09,0,0,1-1.21,1.21H35.84a.53.53,0,0,0-.5.36l-1.42,9a1.2,1.2,0,0,1-1.28,1.14H25A1,1,0,0,1,24,48.3l1.35-8.82c.07-.28-.14-.43-.43-.43H18a.53.53,0,0,0-.5.36l-1.42,9a1.2,1.2,0,0,1-1.28,1.14H7.18A1,1,0,0,1,6.11,48.3l1.35-8.82c.07-.28-.14-.43-.43-.43H3.55a1.09,1.09,0,0,1-1.21-1.21V31.73a1.09,1.09,0,0,1,1.21-1.21H8.39a.53.53,0,0,0,.5-.36l1.07-7c.07-.28-.14-.43-.43-.43H6.18A1.09,1.09,0,0,1,5,21.56V15.37a1.09,1.09,0,0,1,1.21-1.21h4.77a.53.53,0,0,0,.5-.36l1.42-9a1.2,1.2,0,0,1,1.28-1.14h7.61a1,1,0,0,1,1.07,1.28l-1.35,8.82c-.07.28.14.43.43.43h6.83a.53.53,0,0,0,.5-.36l1.42-9a1.2,1.2,0,0,1,1.28-1.14h7.61a1,1,0,0,1,1.07,1.28l-1.35,8.82c-.07.28.14.43.43.43h3.63a1.09,1.09,0,0,1,1.21,1.21l-.07,6.19A1.09,1.09,0,0,1,43.24,22.77Zm-16.5,7.4,1.07-7c.07-.28-.14-.43-.43-.43h-6.9a.53.53,0,0,0-.5.36l-1.07,7c-.07.28.14.43.43.43h6.9A.53.53,0,0,0,26.74,30.16Z" transform="translate(-1.44 -0.25)"/><path class="cls-1" d="M52.2,50.29V2.92a1.09,1.09,0,0,1,1.21-1.21h7.33a1.5,1.5,0,0,1,1.42.78L79.94,32.08c.21.36.5.28.5-.14v-29a1.09,1.09,0,0,1,1.21-1.21h7.47a1.09,1.09,0,0,1,1.21,1.21V50.29a1.09,1.09,0,0,1-1.21,1.21H81.86a1.56,1.56,0,0,1-1.42-.85L62.58,20.78c-.21-.36-.5-.28-.5.14l.07,29.37a1.09,1.09,0,0,1-1.21,1.21H53.41A1.09,1.09,0,0,1,52.2,50.29Z" transform="translate(-1.44 -0.25)"/><path class="cls-1" d="M123.18,40.33c.57-.64,1.14-.71,1.71-.14l4.05,3.91a1.17,1.17,0,0,1,.14,1.71,17.76,17.76,0,0,1-14,6.26c-9,0-14.72-5-16.64-12.52a24.78,24.78,0,0,1-.85-6.61,25.77,25.77,0,0,1,.78-7c1.92-7,8-11.66,15.93-11.66,9.6,0,14.79,6.12,16.36,15.72.21,1.56.36,3.34.43,5.19a1.09,1.09,0,0,1-1.21,1.21H108a.38.38,0,0,0-.43.43,11.42,11.42,0,0,0,.5,2.2c1,2.92,3.91,4.55,7.89,4.55A9.43,9.43,0,0,0,123.18,40.33ZM108.24,27.18a9.34,9.34,0,0,0-.43,1.78c-.07.28.07.43.36.43h12.09c.28,0,.43-.14.36-.43a7,7,0,0,0-.28-1.49A6.06,6.06,0,0,0,114.15,23,5.71,5.71,0,0,0,108.24,27.18Z" transform="translate(-1.44 -0.25)"/><path class="cls-1" d="M143.38,50.51l-10-34.21c-.21-.85.14-1.35,1-1.35h7.82A1.26,1.26,0,0,1,143.52,16l4.91,21.05c.07.36.5.43.57,0L154.26,16a1.26,1.26,0,0,1,1.35-1.07h7A1.32,1.32,0,0,1,163.93,16l5.41,21.12c.07.43.5.43.57,0L175.31,16a1.32,1.32,0,0,1,1.35-1.07l7.82.07c.85,0,1.21.57,1,1.35L175.31,50.51a1.31,1.31,0,0,1-1.35,1h-8a1.31,1.31,0,0,1-1.35-1l-5.33-18.63c-.14-.36-.5-.43-.57,0L154,50.43a1.32,1.32,0,0,1-1.35,1.07h-8A1.31,1.31,0,0,1,143.38,50.51Z" transform="translate(-1.44 -0.25)"/><path class="cls-1" d="M190,37.21V36a1.09,1.09,0,0,1,1.21-1.21h7.47c.78,0,1.21.36,1.21.92v1c0,3.63,3.63,6.76,9.39,6.76,5.41,0,7.4-2.7,7.4-5.55,0-3.63-3.63-4.91-10.38-7.4-7.4-2.56-15.93-5.9-15.93-15.29,0-8.75,7.18-14.08,17.35-14.08,11,0,18.71,6.12,18.71,15.29v.71a1.09,1.09,0,0,1-1.21,1.21H217.7c-.78,0-1.21-.28-1.21-.71v-.71c0-3.7-3.2-7.18-9.17-7.18-4.55,0-7.11,2-7.11,5.33,0,3.7,3.13,5,11,7.75,6.47,2.35,15.43,5.12,15.43,14.79,0,8.68-7,14.44-18.21,14.44S190,46.24,190,37.21Z" transform="translate(-1.44 -0.25)"/><path class="cls-1" d="M257.89,40.33c.57-.64,1.14-.71,1.71-.14l4.05,3.91a1.17,1.17,0,0,1,.14,1.71,17.76,17.76,0,0,1-14,6.26c-9,0-14.72-5-16.64-12.52a24.78,24.78,0,0,1-.85-6.61,25.77,25.77,0,0,1,.78-7C235,19,241,14.3,249,14.3c9.6,0,14.79,6.12,16.36,15.72.21,1.56.36,3.34.43,5.19a1.09,1.09,0,0,1-1.21,1.21H242.74a.38.38,0,0,0-.43.43,11.42,11.42,0,0,0,.5,2.2c1,2.92,3.91,4.55,7.89,4.55A9.43,9.43,0,0,0,257.89,40.33ZM243,27.18a9.34,9.34,0,0,0-.43,1.78c-.07.28.07.43.36.43H255c.28,0,.43-.14.36-.43a7,7,0,0,0-.28-1.49A6.06,6.06,0,0,0,248.86,23,5.71,5.71,0,0,0,243,27.18Z" transform="translate(-1.44 -0.25)"/><path class="cls-1" d="M272.11,50.29V2.92a1.09,1.09,0,0,1,1.21-1.21h7.61a1.09,1.09,0,0,1,1.21,1.21V50.29a1.09,1.09,0,0,1-1.21,1.21h-7.61A1.09,1.09,0,0,1,272.11,50.29Z" transform="translate(-1.44 -0.25)"/><path class="cls-1" d="M311.37,16.08v6a1.09,1.09,0,0,1-1.21,1.21h-6.47a.38.38,0,0,0-.43.43V50.29a1.09,1.09,0,0,1-1.21,1.21h-7.61a1.09,1.09,0,0,1-1.21-1.21V23.76a.38.38,0,0,0-.43-.43H289a1.09,1.09,0,0,1-1.21-1.21v-6A1.09,1.09,0,0,1,289,14.87h3.77a.41.41,0,0,0,.43-.43V13c0-8.68,3.63-11.52,14.08-11.24h2.35a1.09,1.09,0,0,1,1.21,1.21V8a1.09,1.09,0,0,1-1.21,1.21h-2c-3.34.07-4.41,1.14-4.41,4.55v.71a.38.38,0,0,0,.43.43h6.47A1.09,1.09,0,0,1,311.37,16.08Z" transform="translate(-1.44 -0.25)"/><path class="cls-1" d="M327.38,50.43,314.86,3.07a1,1,0,0,1,1.07-1.35H324a1.19,1.19,0,0,1,1.28,1.07L332,31.16a.29.29,0,0,0,.57,0L339,2.78a1.19,1.19,0,0,1,1.28-1.07h8a1.26,1.26,0,0,1,1.35,1.07l7,28.38c.07.43.43.36.5,0l6.4-28.38a1.19,1.19,0,0,1,1.28-1.07h7.75c.85,0,1.21.57,1,1.35L362.08,50.43a1.26,1.26,0,0,1-1.35,1.07h-7.82a1.26,1.26,0,0,1-1.35-1.07l-7.11-30.23c-.07-.36-.5-.43-.57,0l-6.61,30.23A1.19,1.19,0,0,1,336,51.5h-7.25A1.32,1.32,0,0,1,327.38,50.43Z" transform="translate(-1.44 -0.25)"/><path class="cls-1" d="M404.9,26.54V50.29a1.09,1.09,0,0,1-1.21,1.21h-7.61a1.09,1.09,0,0,1-1.21-1.21V48.58c0-.36-.21-.43-.5-.14-2.2,2.42-5.48,3.63-9.74,3.63-7,0-12.16-3.34-12.16-10.67s5.19-11.52,14.79-11.52h7.18a.41.41,0,0,0,.43-.43V28c0-3.06-1.92-5-5.69-5-2.84,0-4.77,1-5.41,2.7a1.25,1.25,0,0,1-1.42.92l-7.89-1c-.71-.07-1.21-.43-1.14-1,.71-5.9,7-10.24,15.65-10.24C398.36,14.37,404.9,19.64,404.9,26.54Zm-10,12.23V36.28a.41.41,0,0,0-.43-.43h-5c-4.27,0-6.9,1.64-6.9,4.62,0,2.56,2.06,4.13,5,4.13C391.53,44.6,394.87,42.25,394.87,38.77Z" transform="translate(-1.44 -0.25)"/><path class="cls-1" d="M412,50.29V2.92a1.09,1.09,0,0,1,1.21-1.21h7.61A1.09,1.09,0,0,1,422,2.92V50.29a1.09,1.09,0,0,1-1.21,1.21h-7.61A1.09,1.09,0,0,1,412,50.29Z" transform="translate(-1.44 -0.25)"/><path class="cls-1" d="M454.4,40.33c.57-.64,1.14-.71,1.71-.14l4.05,3.91a1.17,1.17,0,0,1,.14,1.71,17.76,17.76,0,0,1-14,6.26c-9,0-14.72-5-16.64-12.52a24.78,24.78,0,0,1-.85-6.61,25.77,25.77,0,0,1,.78-7c1.92-7,8-11.66,15.93-11.66,9.6,0,14.79,6.12,16.36,15.72.21,1.56.36,3.34.43,5.19a1.09,1.09,0,0,1-1.21,1.21H439.25a.38.38,0,0,0-.43.43,11.42,11.42,0,0,0,.5,2.2c1,2.92,3.91,4.55,7.89,4.55A9.43,9.43,0,0,0,454.4,40.33ZM439.47,27.18A9.34,9.34,0,0,0,439,29c-.07.28.07.43.36.43h12.09c.28,0,.43-.14.36-.43a7,7,0,0,0-.28-1.49A6.06,6.06,0,0,0,445.37,23,5.71,5.71,0,0,0,439.47,27.18Z" transform="translate(-1.44 -0.25)"/><path class="cls-1" d="M467.35,41.4V41a1.09,1.09,0,0,1,1.21-1.21h7.18c.78,0,1.21.14,1.21.43v.5c0,2.06,2.49,3.77,6,3.77,3.27,0,5.41-1.42,5.41-3.34,0-2.84-5.41-2.77-10.67-4.91-4.84-1.64-10-4.05-10-10.38,0-7.11,6.12-11.45,14.94-11.45,9.17,0,15.22,4.77,15.22,11.52,0,.5-.43.85-1.21.85h-7c-.78,0-1.21-.14-1.21-.43V26c0-2.06-2.13-3.7-5.76-3.7-3.06,0-5.41,1.14-5.41,3.2,0,2.84,5,3.06,10.24,4.69,5.62,1.64,11,4.13,11,10.67C498.5,48,492.24,52,483.07,52,473.39,52,467.35,47.59,467.35,41.4Z" transform="translate(-1.44 -0.25)"/></svg>